<?xml version="1.0" encoding="utf-8"?>
<!-- Generator: Adobe Illustrator 23.0.2, SVG Export Plug-In . SVG Version: 6.00 Build 0)  -->
<svg version="1.1" id="Layer_1" xmlns="http://www.w3.org/2000/svg" xmlns:xlink="http://www.w3.org/1999/xlink" x="0px" y="0px"
	 viewBox="0 0 322.1 33.9" style="enable-background:new 0 0 322.1 33.9;" xml:space="preserve">
<style type="text/css">
	.st0{fill:#4A41F4;}
	.st1{fill:#F4D1D1;}
</style>
<g>
	<rect x="32.8" y="2.4" transform="matrix(0.7071 -0.7071 0.7071 0.7071 -0.9904 31.5035)" class="st0" width="9.4" height="29.1"/>
	
		<rect x="-2.3" y="12.2" transform="matrix(0.7071 -0.7071 0.7071 0.7071 -7.0198 16.9473)" class="st1" width="38.5" height="9.4"/>
	<rect x="74" y="2.4" transform="matrix(0.7071 -0.7071 0.7071 0.7071 11.0684 60.6159)" class="st0" width="9.4" height="29.1"/>
	<rect x="38.9" y="12.2" transform="matrix(0.7071 -0.7071 0.7071 0.7071 5.039 46.0597)" class="st1" width="38.5" height="9.4"/>
	
		<rect x="115.2" y="2.4" transform="matrix(0.7071 -0.7071 0.7071 0.7071 23.1271 89.7284)" class="st0" width="9.4" height="29.1"/>
	<rect x="80" y="12.2" transform="matrix(0.7071 -0.7071 0.7071 0.7071 17.0977 75.1721)" class="st1" width="38.5" height="9.4"/>
	
		<rect x="156.3" y="2.4" transform="matrix(0.7071 -0.7071 0.7071 0.7071 35.1859 118.8408)" class="st0" width="9.4" height="29.1"/>
	
		<rect x="121.2" y="12.2" transform="matrix(0.7071 -0.7071 0.7071 0.7071 29.1565 104.2846)" class="st1" width="38.5" height="9.4"/>
	
		<rect x="197.5" y="2.4" transform="matrix(0.7071 -0.7071 0.7071 0.7071 47.2447 147.9532)" class="st0" width="9.4" height="29.1"/>
	
		<rect x="162.4" y="12.2" transform="matrix(0.7071 -0.7071 0.7071 0.7071 41.2153 133.397)" class="st1" width="38.5" height="9.4"/>
	
		<rect x="238.7" y="2.4" transform="matrix(0.7071 -0.7071 0.7071 0.7071 59.3034 177.0657)" class="st0" width="9.4" height="29.1"/>
	
		<rect x="203.5" y="12.2" transform="matrix(0.7071 -0.7071 0.7071 0.7071 53.274 162.5095)" class="st1" width="38.5" height="9.4"/>
	
		<rect x="279.9" y="2.4" transform="matrix(0.7071 -0.7071 0.7071 0.7071 71.3622 206.1781)" class="st0" width="9.4" height="29.1"/>
	
		<rect x="244.7" y="12.2" transform="matrix(0.7071 -0.7071 0.7071 0.7071 65.3328 191.6219)" class="st1" width="38.5" height="9.4"/>
	
		<rect x="285.9" y="12.2" transform="matrix(0.7071 -0.7071 0.7071 0.7071 77.3916 220.7343)" class="st1" width="38.5" height="9.4"/>
</g>
</svg>
