<svg id="Layer_1" data-name="Layer 1" xmlns="http://www.w3.org/2000/svg" viewBox="0 0 400 110"><title>Artboard 1</title><path d="M15.73,54.64v32.3H0V.55H37q15.38,0,23.72,7t8.35,20.09A24.58,24.58,0,0,1,64.19,43a26.91,26.91,0,0,1-13.49,9.2L72.35,86.94H54.81L35.09,54.64Zm0-41.38V42.05H35.21q9,0,13.49-3.63t4.54-10.76q0-7.14-4.54-10.77T35.21,13.26Z"/><path d="M112.28,24q13.92,0,22.51,8.83t8.59,23.35q0,14.64-8.53,23.41t-22.57,8.77q-14,0-22.56-8.77T81.19,56.21q0-14.52,8.59-23.35T112.28,24Zm0,11.49A13.59,13.59,0,0,0,100.79,41q-4.12,5.45-4.12,15.25t4.12,15.25q4.11,5.45,11.49,5.44a13.6,13.6,0,0,0,11.5-5.44q4.11-5.44,4.11-15.25T123.78,41A13.55,13.55,0,0,0,112.28,35.52Z"/><path d="M184.88,24q13.91,0,22.5,8.83T216,56.21q0,14.64-8.53,23.41t-22.56,8.77q-14,0-22.57-8.77t-8.53-23.41q0-14.52,8.59-23.35T184.88,24Zm0,11.49A13.6,13.6,0,0,0,173.38,41q-4.11,5.45-4.11,15.25t4.11,15.25q4.11,5.45,11.5,5.44t11.49-5.44q4.11-5.44,4.11-15.25T196.37,41A13.52,13.52,0,0,0,184.88,35.52Z"/><path d="M255.05,75.45a26,26,0,0,0,4-.3,36.89,36.89,0,0,0,4.12-.91V86.1a42.41,42.41,0,0,1-6.05,1.39,43.14,43.14,0,0,1-6.17.42q-9.8,0-14.46-4.36t-4.66-13.43V36.61h-8.47V25.48h8.47V10.11h15.37V25.48h14.64V36.61H247.07V67.7c0,2.67.62,4.62,1.87,5.87S252.23,75.45,255.05,75.45Z"/><path d="M301.51,88.39q-12.7,0-20.26-5.26a19.55,19.55,0,0,1-8.53-14.82h14.76a9,9,0,0,0,4.29,6.84,17.1,17.1,0,0,0,9.5,2.48,15.38,15.38,0,0,0,8.41-2.06A6.33,6.33,0,0,0,312.89,70a5.09,5.09,0,0,0-2.12-4.41q-2.11-1.52-7.32-2.48l-10.89-1.94q-9-1.58-13.31-5.93t-4.36-11.61a17.15,17.15,0,0,1,7-14.1q7-5.51,17.91-5.5,11.73,0,18.57,4.9t7.8,14H312a8,8,0,0,0-3.75-5.81,14.78,14.78,0,0,0-8.35-2.17,14,14,0,0,0-7.8,1.93,6,6,0,0,0-3,5.2,5.15,5.15,0,0,0,2.06,4.42Q293.29,48,298.61,49l12,2.06q8.34,1.44,12.58,6t4.23,11.91q0,8.59-7.32,14T301.51,88.39Z"/><path d="M347.13,97.47q4.83,0,7.32-2.18t4.9-8.47l-24-61.34h15.73l17.06,46.34h.24l16.21-46.34H400L376,88q-4.35,11.49-10.28,16.4t-15.61,5q-1.57,0-3.57-.18c-1.33-.13-2.52-.27-3.57-.43V97.11a10.76,10.76,0,0,0,1.82.3C345.39,97.45,346.16,97.47,347.13,97.47Z"/></svg>